<svg width="335" height="134" viewBox="0 0 335 134" fill="none" xmlns="http://www.w3.org/2000/svg">
<path fill-rule="evenodd" clip-rule="evenodd" d="M111.273 64.3831C109.072 61.7068 105.735 60 102 60C95.3726 60 90 65.3726 90 72C90 78.6274 95.3726 84 102 84C104.775 84 107.331 83.0578 109.364 81.4758C106.52 84.8537 102.261 87 97.5 87C88.9396 87 82 80.0604 82 71.5C82 62.9396 88.9396 56 97.5 56C103.495 56 108.695 59.4033 111.273 64.3831Z" fill="#2E7A0B" fill-opacity="0.52"/>
<path fill-rule="evenodd" clip-rule="evenodd" d="M129.273 64.3831C127.072 61.7068 123.735 60 120 60C113.373 60 108 65.3726 108 72C108 78.6274 113.373 84 120 84C122.775 84 125.331 83.0578 127.364 81.4758C124.52 84.8537 120.261 87 115.5 87C106.94 87 100 80.0604 100 71.5C100 62.9396 106.94 56 115.5 56C121.495 56 126.695 59.4033 129.273 64.3831Z" fill="#2E7A0B" fill-opacity="0.52"/>
<path d="M14.984 69.4H30.248C33.896 69.4 37.112 70.104 39.896 71.512C42.712 72.888 44.888 74.84 46.424 77.368C47.992 79.896 48.776 82.84 48.776 86.2C48.776 89.56 47.992 92.504 46.424 95.032C44.888 97.56 42.712 99.528 39.896 100.936C37.112 102.312 33.896 103 30.248 103H14.984V69.4ZM29.864 96.616C33.224 96.616 35.896 95.688 37.88 93.832C39.896 91.944 40.904 89.4 40.904 86.2C40.904 83 39.896 80.472 37.88 78.616C35.896 76.728 33.224 75.784 29.864 75.784H22.76V96.616H29.864ZM70.4803 103.384C67.7603 103.384 65.3123 102.824 63.1363 101.704C60.9923 100.552 59.3123 98.968 58.0963 96.952C56.8803 94.936 56.2723 92.648 56.2723 90.088C56.2723 87.528 56.8803 85.24 58.0963 83.224C59.3123 81.208 60.9923 79.64 63.1363 78.52C65.3123 77.368 67.7603 76.792 70.4803 76.792C73.2003 76.792 75.6323 77.368 77.7763 78.52C79.9203 79.64 81.6003 81.208 82.8163 83.224C84.0323 85.24 84.6403 87.528 84.6403 90.088C84.6403 92.648 84.0323 94.936 82.8163 96.952C81.6003 98.968 79.9203 100.552 77.7763 101.704C75.6323 102.824 73.2003 103.384 70.4803 103.384ZM70.4803 97.24C72.4003 97.24 73.9683 96.6 75.1843 95.32C76.4323 94.008 77.0563 92.264 77.0563 90.088C77.0563 87.912 76.4323 86.184 75.1843 84.904C73.9683 83.592 72.4003 82.936 70.4803 82.936C68.5603 82.936 66.9763 83.592 65.7283 84.904C64.4803 86.184 63.8563 87.912 63.8563 90.088C63.8563 92.264 64.4803 94.008 65.7283 95.32C66.9763 96.6 68.5603 97.24 70.4803 97.24ZM106.205 103.384C103.453 103.384 100.973 102.824 98.7654 101.704C96.5894 100.552 94.8774 98.968 93.6294 96.952C92.4134 94.936 91.8054 92.648 91.8054 90.088C91.8054 87.528 92.4134 85.24 93.6294 83.224C94.8774 81.208 96.5894 79.64 98.7654 78.52C100.973 77.368 103.453 76.792 106.205 76.792C108.925 76.792 111.293 77.368 113.309 78.52C115.357 79.64 116.845 81.256 117.773 83.368L111.965 86.488C110.621 84.12 108.685 82.936 106.157 82.936C104.205 82.936 102.589 83.576 101.309 84.856C100.029 86.136 99.3894 87.88 99.3894 90.088C99.3894 92.296 100.029 94.04 101.309 95.32C102.589 96.6 104.205 97.24 106.157 97.24C108.717 97.24 110.653 96.056 111.965 93.688L117.773 96.856C116.845 98.904 115.357 100.504 113.309 101.656C111.293 102.808 108.925 103.384 106.205 103.384ZM148.821 95.8H133.221L130.245 103H122.277L137.253 69.4H144.933L159.957 103H151.797L148.821 95.8ZM146.373 89.896L141.045 77.032L135.717 89.896H146.373ZM175.448 103.384C173.304 103.384 171.208 103.128 169.16 102.616C167.112 102.072 165.48 101.4 164.264 100.6L166.76 95.224C167.912 95.96 169.304 96.568 170.936 97.048C172.568 97.496 174.168 97.72 175.736 97.72C178.904 97.72 180.488 96.936 180.488 95.368C180.488 94.632 180.056 94.104 179.192 93.784C178.328 93.464 177 93.192 175.208 92.968C173.096 92.648 171.352 92.28 169.976 91.864C168.6 91.448 167.4 90.712 166.376 89.656C165.384 88.6 164.888 87.096 164.888 85.144C164.888 83.512 165.352 82.072 166.28 80.824C167.24 79.544 168.616 78.552 170.408 77.848C172.232 77.144 174.376 76.792 176.84 76.792C178.664 76.792 180.472 77 182.264 77.416C184.088 77.8 185.592 78.344 186.776 79.048L184.28 84.376C182.008 83.096 179.528 82.456 176.84 82.456C175.24 82.456 174.04 82.68 173.24 83.128C172.44 83.576 172.04 84.152 172.04 84.856C172.04 85.656 172.472 86.216 173.336 86.536C174.2 86.856 175.576 87.16 177.464 87.448C179.576 87.8 181.304 88.184 182.648 88.6C183.992 88.984 185.16 89.704 186.152 90.76C187.144 91.816 187.64 93.288 187.64 95.176C187.64 96.776 187.16 98.2 186.2 99.448C185.24 100.696 183.832 101.672 181.976 102.376C180.152 103.048 177.976 103.384 175.448 103.384ZM205.028 103.384C202.884 103.384 200.788 103.128 198.74 102.616C196.692 102.072 195.06 101.4 193.844 100.6L196.34 95.224C197.492 95.96 198.884 96.568 200.516 97.048C202.148 97.496 203.748 97.72 205.316 97.72C208.484 97.72 210.068 96.936 210.068 95.368C210.068 94.632 209.636 94.104 208.772 93.784C207.908 93.464 206.58 93.192 204.788 92.968C202.676 92.648 200.932 92.28 199.556 91.864C198.18 91.448 196.98 90.712 195.956 89.656C194.964 88.6 194.468 87.096 194.468 85.144C194.468 83.512 194.932 82.072 195.86 80.824C196.82 79.544 198.196 78.552 199.988 77.848C201.812 77.144 203.956 76.792 206.42 76.792C208.244 76.792 210.052 77 211.844 77.416C213.668 77.8 215.172 78.344 216.356 79.048L213.86 84.376C211.588 83.096 209.108 82.456 206.42 82.456C204.82 82.456 203.62 82.68 202.82 83.128C202.02 83.576 201.62 84.152 201.62 84.856C201.62 85.656 202.052 86.216 202.916 86.536C203.78 86.856 205.156 87.16 207.044 87.448C209.156 87.8 210.884 88.184 212.228 88.6C213.572 88.984 214.74 89.704 215.732 90.76C216.724 91.816 217.22 93.288 217.22 95.176C217.22 96.776 216.74 98.2 215.78 99.448C214.82 100.696 213.412 101.672 211.556 102.376C209.732 103.048 207.556 103.384 205.028 103.384ZM225.92 77.176H233.408V103H225.92V77.176ZM229.664 73.576C228.288 73.576 227.168 73.176 226.304 72.376C225.44 71.576 225.008 70.584 225.008 69.4C225.008 68.216 225.44 67.224 226.304 66.424C227.168 65.624 228.288 65.224 229.664 65.224C231.04 65.224 232.16 65.608 233.024 66.376C233.888 67.144 234.32 68.104 234.32 69.256C234.32 70.504 233.888 71.544 233.024 72.376C232.16 73.176 231.04 73.576 229.664 73.576ZM253.126 103.384C250.982 103.384 248.886 103.128 246.838 102.616C244.79 102.072 243.158 101.4 241.942 100.6L244.438 95.224C245.59 95.96 246.982 96.568 248.614 97.048C250.246 97.496 251.846 97.72 253.414 97.72C256.582 97.72 258.166 96.936 258.166 95.368C258.166 94.632 257.734 94.104 256.87 93.784C256.006 93.464 254.678 93.192 252.886 92.968C250.774 92.648 249.03 92.28 247.654 91.864C246.278 91.448 245.078 90.712 244.054 89.656C243.062 88.6 242.566 87.096 242.566 85.144C242.566 83.512 243.03 82.072 243.958 80.824C244.918 79.544 246.294 78.552 248.086 77.848C249.91 77.144 252.054 76.792 254.518 76.792C256.342 76.792 258.15 77 259.942 77.416C261.766 77.8 263.27 78.344 264.454 79.048L261.958 84.376C259.686 83.096 257.206 82.456 254.518 82.456C252.918 82.456 251.718 82.68 250.918 83.128C250.118 83.576 249.718 84.152 249.718 84.856C249.718 85.656 250.15 86.216 251.014 86.536C251.878 86.856 253.254 87.16 255.142 87.448C257.254 87.8 258.982 88.184 260.326 88.6C261.67 88.984 262.838 89.704 263.83 90.76C264.822 91.816 265.318 93.288 265.318 95.176C265.318 96.776 264.838 98.2 263.878 99.448C262.918 100.696 261.51 101.672 259.654 102.376C257.83 103.048 255.654 103.384 253.126 103.384Z" fill="black"/>
<mask id="path-4-inside-1" fill="white">
<path fill-rule="evenodd" clip-rule="evenodd" d="M284.74 21H273.26V46.42L238 46.42V57.9H273.26V103H284.74V57.9H320V46.42L284.74 46.42V21Z"/>
</mask>
<path d="M273.26 21V17H269.26V21H273.26ZM284.74 21H288.74V17H284.74V21ZM273.26 46.42L273.26 50.42L277.26 50.42V46.42H273.26ZM238 46.42L238 42.42L234 42.42V46.42H238ZM238 57.9H234V61.9H238V57.9ZM273.26 57.9H277.26V53.9H273.26V57.9ZM273.26 103H269.26V107H273.26V103ZM284.74 103V107H288.74V103H284.74ZM284.74 57.9V53.9H280.74V57.9H284.74ZM320 57.9V61.9H324V57.9H320ZM320 46.42H324V42.42L320 42.42L320 46.42ZM284.74 46.42H280.74V50.42L284.74 50.42L284.74 46.42ZM273.26 25H284.74V17H273.26V25ZM277.26 46.42V21H269.26V46.42H277.26ZM238 50.42L273.26 50.42L273.26 42.42L238 42.42L238 50.42ZM242 57.9V46.42H234V57.9H242ZM273.26 53.9H238V61.9H273.26V53.9ZM277.26 103V57.9H269.26V103H277.26ZM284.74 99H273.26V107H284.74V99ZM280.74 57.9V103H288.74V57.9H280.74ZM320 53.9H284.74V61.9H320V53.9ZM316 46.42V57.9H324V46.42H316ZM284.74 50.42L320 50.42L320 42.42L284.74 42.42L284.74 50.42ZM280.74 21V46.42H288.74V21H280.74Z" fill="#FF0000" mask="url(#path-4-inside-1)"/>
<rect x="2" y="2" width="331" height="130" rx="18" stroke="black" stroke-width="4"/>
<rect x="15" y="108" width="103" height="3" fill="url(#paint0_linear)"/>
<defs>
<linearGradient id="paint0_linear" x1="17" y1="111" x2="114.5" y2="110" gradientUnits="userSpaceOnUse">
<stop stop-color="#FD0202"/>
<stop offset="1" stop-color="#92BA80" stop-opacity="0.33"/>
</linearGradient>
</defs>
</svg>
